<svg height="512pt" viewBox="0 0 512 512" width="512pt" xmlns="http://www.w3.org/2000/svg"><path d="m437.019531 74.980469c-48.351562-48.351563-112.636719-74.980469-181.019531-74.980469-68.378906 0-132.667969 26.628906-181.019531 74.980469-48.351563 48.351562-74.980469 112.636719-74.980469 181.019531 0 68.378906 26.628906 132.667969 74.980469 181.019531 48.351562 48.351563 112.640625 74.980469 181.019531 74.980469 68.382812 0 132.667969-26.628906 181.019531-74.980469 48.351563-48.351562 74.980469-112.640625 74.980469-181.019531 0-68.382812-26.628906-132.667969-74.980469-181.019531zm0 0" fill="#54e360"/><path d="m437.019531 74.980469c-48.351562-48.351563-112.640625-74.980469-181.019531-74.980469v512c68.378906 0 132.667969-26.628906 181.019531-74.980469 48.351563-48.351562 74.980469-112.640625 74.980469-181.019531 0-68.382812-26.628906-132.667969-74.980469-181.019531zm0 0" fill="#1fbf66"/><path d="m384.53125 208.867188h-81.398438v-81.398438c0-8.285156-6.714843-15-15-15h-64.265624c-8.285157 0-15 6.714844-15 15v81.398438h-81.402344c-8.28125 0-15 6.714843-15 15v64.265624c0 8.285157 6.71875 15 15 15h81.402344v81.398438c0 8.285156 6.714843 15 15 15h64.265624c8.285157 0 15-6.714844 15-15v-81.398438h81.398438c8.285156 0 15-6.714843 15-15v-64.265624c0-8.285157-6.714844-15-15-15zm0 0" fill="#e7f0ef"/><path d="m384.53125 208.867188h-81.398438v-81.398438c0-8.285156-6.714843-15-15-15h-32.132812v287.0625h32.132812c8.285157 0 15-6.714844 15-15v-81.398438h81.398438c8.285156 0 15-6.714843 15-15v-64.265624c0-8.285157-6.714844-15-15-15zm0 0" fill="#c5e1e6"/></svg>