<?xml version="1.0" encoding="iso-8859-1"?>
<!-- Generator: Adobe Illustrator 19.0.0, SVG Export Plug-In . SVG Version: 6.00 Build 0)  -->
<svg version="1.1" id="Capa_1" xmlns="http://www.w3.org/2000/svg" xmlns:xlink="http://www.w3.org/1999/xlink" x="0px" y="0px"
	 viewBox="0 0 512 512" style="enable-background:new 0 0 512 512;" xml:space="preserve">
<path style="fill:#FE9923;" d="M468.961,450.799C450.061,488,409.262,512,364.562,512h-90.601c-6.299,0-12.299-0.901-17.999-3.001
	c-23.699-6.299-41.7-26.1-44.7-50.099c-1.8-17.1,3.6-34.2,15-46.8c5.4-6.301,15-6.899,21.299-1.199l8.401-9.3L399.363,242.5
	c7.2-3.6,16.199-0.601,20.099,6.899l49.799,100.3C485.162,381.799,484.862,418.7,468.961,450.799z"/>
<path style="fill:#FD4E26;" d="M270.962,15v61c0,8.399-6.599,15-15,15s-15-6.601-15-15V15c0-8.401,6.599-15,15-15
	S270.962,6.599,270.962,15z"/>
<path style="fill:#FD3018;" d="M409.961,136c-6.621,0-12.686-4.409-14.473-11.118c-2.139-7.998,2.607-16.23,10.605-18.369l55.986-15
	c8.057-2.124,16.23,2.607,18.369,10.605s-2.607,16.23-10.605,18.369l-55.986,15C412.554,135.839,411.25,136,409.961,136z"/>
<g>
	<path style="fill:#FD4E26;" d="M105.977,136c-1.289,0-2.593-0.161-3.896-0.513l-55.986-15
		c-7.998-2.139-12.744-10.371-10.605-18.369c2.153-7.983,10.4-12.7,18.369-10.605l55.986,15
		c7.998,2.139,12.744,10.371,10.605,18.369C118.662,131.576,112.598,136,105.977,136z"/>
	<path style="fill:#FD4E26;" d="M165.962,91c-3.838,0-7.676-1.465-10.605-4.395l-30-30c-5.859-5.859-5.859-15.352,0-21.211
		c5.859-5.859,15.352-5.859,21.211,0l30,30c5.859,5.859,5.859,15.352,0,21.211C173.638,89.535,169.8,91,165.962,91z"/>
</g>
<g>
	<path style="fill:#FD3018;" d="M345.962,91c-3.838,0-7.676-1.465-10.605-4.395c-5.859-5.859-5.859-15.352,0-21.211l30-30
		c5.859-5.859,15.352-5.859,21.211,0s5.859,15.352,0,21.211l-30,30C353.638,89.535,349.8,91,345.962,91z"/>
	<path style="fill:#FD3018;" d="M255.962,91V0c8.401,0,15,6.599,15,15v61C270.962,84.399,264.363,91,255.962,91z"/>
</g>
<path style="fill:#FE8821;" d="M468.961,450.799C450.061,488,409.262,512,364.562,512h-90.601c-6.299,0-12.299-0.901-17.999-3.001
	V401.6l143.401-159.1c7.2-3.6,16.199-0.601,20.099,6.899l49.799,100.3C485.162,381.799,484.862,418.7,468.961,450.799z"/>
<path style="fill:#FEDBAB;" d="M420.962,211v181c0,32.999-27.001,60-60,60c-17.401,0-33.6-7.5-45-20.4
	c-11.4,12.9-27.599,20.4-45,20.4c-5.099,0-10.201-0.601-15-2.1c-11.4-2.701-21.899-9.3-30-18.3c-11.4,12.9-27.599,20.4-45,20.4
	s-33.6-7.5-45-20.4c-11.4,12.9-27.599,20.4-45,20.4c-32.999,0-60-27.001-60-60V241c0-33.001,27.001-60,60-60
	c12.001,0,23.401,3.3,32.999,9.899c8.701-26.999,34.2-39.598,57.001-39.598c12.001,0,23.699,3.6,33.3,9.598
	c6.601-18.6,22.5-32.999,41.7-37.798c4.799-1.501,9.901-2.1,15-2.1c25.8,0,48.3,16.5,56.7,40.199
	c9.6-6.599,21.299-10.199,33.3-10.199C393.663,151,420.662,177.999,420.962,211z"/>
<path style="fill:#FEC478;" d="M420.962,211v181c0,32.999-27.001,60-60,60c-17.401,0-33.6-7.5-45-20.4
	c-11.4,12.9-27.599,20.4-45,20.4c-5.099,0-10.201-0.601-15-2.1V123.1c4.799-1.501,9.901-2.1,15-2.1c25.8,0,48.3,16.5,56.7,40.199
	c9.6-6.599,21.299-10.199,33.3-10.199C393.663,151,420.662,177.999,420.962,211z"/>
<g>
</g>
<g>
</g>
<g>
</g>
<g>
</g>
<g>
</g>
<g>
</g>
<g>
</g>
<g>
</g>
<g>
</g>
<g>
</g>
<g>
</g>
<g>
</g>
<g>
</g>
<g>
</g>
<g>
</g>
</svg>
