<svg height="512pt" viewBox="-186 0 512 512" width="512pt" xmlns="http://www.w3.org/2000/svg"><path d="m125.757812 0h-110.757812c-8.285156 0-15 6.714844-15 15v482c0 8.285156 6.714844 15 15 15h110.757812c8.285157 0 15-6.714844 15-15v-482c0-8.285156-6.714843-15-15-15zm0 0" fill="#badeff"/><path d="m125.757812 0h-55.378906v512h55.378906c8.285157 0 15-6.714844 15-15v-482c0-8.285156-6.714843-15-15-15zm0 0" fill="#80b5e4"/><g fill="#46708f"><path d="m100.175781 437.507812c0 8.285157 6.71875 15 15 15h25.582031v-30h-25.582031c-8.28125 0-15 6.71875-15 15zm0 0"/><path d="m100.175781 377.007812c0 8.28125 6.71875 15 15 15h25.582031v-30h-25.582031c-8.28125 0-15 6.714844-15 15zm0 0"/><path d="m100.175781 316.503906c0 8.28125 6.71875 15 15 15h25.582031v-30h-25.582031c-8.28125 0-15 6.714844-15 15zm0 0"/><path d="m100.175781 256c0 8.285156 6.71875 15 15 15h25.582031v-30h-25.582031c-8.28125 0-15 6.714844-15 15zm0 0"/><path d="m100.175781 195.496094c0 8.285156 6.71875 15 15 15h25.582031v-30h-25.582031c-8.28125 0-15 6.71875-15 15zm0 0"/><path d="m100.175781 134.992188c0 8.285156 6.71875 15 15 15h25.582031v-30h-25.582031c-8.28125 0-15 6.71875-15 15zm0 0"/><path d="m100.175781 74.492188c0 8.28125 6.71875 15 15 15h25.582031v-30h-25.582031c-8.28125 0-15 6.714843-15 15zm0 0"/></g></svg>