<svg height="512pt" viewBox="0 -14 512.00035 512" width="512pt" xmlns="http://www.w3.org/2000/svg"><path d="m430.886719 295.136719c-11.628907 11.179687-16.9375 27.285156-14.1875 43.074219l15.613281 89.792968c6.914062 39.757813-35.390625 70.066406-71.585938 51.296875l-81.773437-42.390625c-7.183594-3.726562-15.070313-5.59375-22.957031-5.59375-7.886719 0-15.773438 1.863282-22.960938 5.59375l-81.769531 42.390625c-36.199219 18.769531-78.503906-11.539062-71.589844-51.296875l15.625-89.792968c2.738281-15.789063-2.566406-31.894532-14.199219-43.074219l-66.148437-63.59375c-29.28125-28.152344-13.125-77.195313 27.335937-82.988281l91.425782-13.109376c16.078125-2.300781 29.960937-12.253906 37.15625-26.613281l40.882812-81.707031c9.050782-18.085938 26.644532-27.125 44.242188-27.125 17.59375 0 35.199218 9.039062 44.238281 27.128906l40.894531 81.703125c7.183594 14.359375 21.078125 24.3125 37.144532 26.613281l91.425781 13.113282c40.472656 5.789062 56.628906 54.832031 27.347656 82.988281zm0 0" fill="#fed317"/><path d="m430.886719 295.136719c-11.628907 11.179687-16.9375 27.285156-14.1875 43.074219l15.613281 89.792968c6.914062 39.757813-35.390625 70.066406-71.585938 51.296875l-81.773437-42.390625c-7.183594-3.726562-15.070313-5.59375-22.957031-5.59375v-431.316406c17.59375 0 35.199218 9.039062 44.238281 27.128906l40.894531 81.703125c7.183594 14.359375 21.078125 24.3125 37.144532 26.613281l91.425781 13.113282c40.472656 5.789062 56.628906 54.832031 27.347656 82.988281zm0 0" fill="#fe9e0f"/></svg>