<svg height="511pt" viewBox="0 -11 511.99874 511" width="511pt" xmlns="http://www.w3.org/2000/svg"><path d="m135.71875 490.480469c-12.769531 0-25.445312-4.007813-36.265625-11.898438-18.921875-13.800781-28.203125-36.667969-24.230469-59.679687l14.707032-85.167969c1.738281-10.082031-1.636719-20.375-9.019532-27.527344l-62.273437-60.316406c-16.855469-16.324219-22.84375-40.304687-15.632813-62.574219 7.246094-22.386718 26.277344-38.386718 49.664063-41.761718l86.0625-12.433594c10.257812-1.476563 19.113281-7.863282 23.695312-17.078125l38.480469-77.484375c10.4375-21.007813 31.542969-34.058594 55.085938-34.058594 23.558593 0 44.664062 13.050781 55.089843 34.0625l38.492188 77.488281c4.574219 9.210938 13.425781 15.589844 23.675781 17.066407l86.074219 12.4375c23.386719 3.375 42.421875 19.375 49.671875 41.761718 7.210937 22.273438 1.222656 46.25-15.632813 62.570313l-62.285156 60.320312c-7.382813 7.152344-10.753906 17.441407-9.011719 27.523438l14.699219 85.171875c3.972656 23.011718-5.3125 45.878906-24.230469 59.675781-19.082031 13.917969-43.949218 15.765625-64.890625 4.824219l-76.984375-40.207032c-4.503906-2.355468-9.574218-3.601562-14.667968-3.601562-5.089844 0-10.160157 1.246094-14.664063 3.597656l-76.984375 40.210938c-9.070312 4.738281-18.875 7.078125-28.625 7.078125zm120.277344-459.980469c-12.257813 0-22.804688 6.507812-28.21875 17.402344l-38.484375 77.496094c-8.976563 18.046874-26.273438 30.535156-46.277344 33.414062l-86.0625 12.4375c-12.160156 1.753906-21.65625 9.71875-25.40625 21.308594-3.714844 11.472656-.738281 23.355468 7.960937 31.78125l62.273438 60.316406c14.511719 14.058594 21.132812 34.308594 17.714844 54.175781l-14.710938 85.175781c-2.046875 11.859376 2.566406 23.199219 12.347656 30.332032 9.941407 7.253906 22.398438 8.175781 33.320313 2.472656l76.984375-40.210938c8.769531-4.582031 18.648438-7.003906 28.558594-7.003906s19.785156 2.421875 28.5625 7.007813l76.976562 40.207031c10.921875 5.703125 23.378906 4.78125 33.324219-2.472656 9.777344-7.128906 14.394531-18.472656 12.347656-30.335938l-14.699219-85.167968c-3.433593-19.863282 3.183594-40.117188 17.703126-54.179688l62.28125-60.316406c8.699218-8.425782 11.679687-20.308594 7.960937-31.78125-3.75-11.589844-13.25-19.554688-25.410156-21.308594l-86.074219-12.4375c-20.007812-2.882812-37.300781-15.375-46.261719-33.414062l-38.496093-77.496094c-5.40625-10.898438-15.953126-17.402344-28.214844-17.402344zm0 0"/></svg>