<svg id="Capa_1" enable-background="new 0 0 512 512" height="512" viewBox="0 0 512 512" width="512" xmlns="http://www.w3.org/2000/svg"><g><path d="m182.058 375.046-22.552-22.552-100.607 72.3 36.705 36.705z" fill="#8f4813"/><path d="m43.872 368.499h122.264v31.893h-122.264z" fill="#c47e4e" transform="matrix(.707 -.707 .707 .707 -241.089 186.85)"/><path d="m512 0-366.98 338.673 62.263 56.25 304.717-304.717z" fill="#b4d2d7"/><path d="m421.794 0-304.718 304.718 42.097 48.109 352.827-352.827z" fill="#e1ebf0"/><path d="m302.923 452.414 6.248-29.342c-48.658-10.361-92.972-34.432-128.15-69.61l-11.241-11.242-17.683 3.53-3.53 17.683 11.241 11.241c39.286 39.287 88.775 66.169 143.115 77.74z" fill="#87a0af"/><path d="m158.538 330.979c-35.178-35.178-59.249-79.491-69.61-128.149l-29.342 6.248c11.572 54.341 38.453 103.829 77.739 143.115l11.242 11.242 21.213-21.213z" fill="#b4d2d7"/><path d="m90.202 421.798-51.517 23.209-23.209 51.516c9.979 9.981 23.249 15.477 37.362 15.477 14.115 0 27.383-5.496 37.363-15.476s15.476-23.249 15.476-37.363c.001-14.114-5.496-27.383-15.475-37.363z" fill="#ff9f22"/><path d="m52.839 406.322c-14.114 0-27.383 5.496-37.363 15.476s-15.476 23.249-15.476 37.364c0 14.113 5.496 27.382 15.476 37.362l74.726-74.726c-9.981-9.98-23.249-15.476-37.363-15.476z" fill="#ffcd00"/></g></svg>