<?xml version="1.0" encoding="iso-8859-1"?>
<!-- Generator: Adobe Illustrator 19.0.0, SVG Export Plug-In . SVG Version: 6.00 Build 0)  -->
<svg version="1.1" id="Capa_1" xmlns="http://www.w3.org/2000/svg" xmlns:xlink="http://www.w3.org/1999/xlink" x="0px" y="0px"
	 viewBox="0 0 512 512" style="enable-background:new 0 0 512 512;" xml:space="preserve">
<path style="fill:#FFD399;" d="M343.891,87.898c0,48.463-39.425,87.898-87.888,87.898c-48.473,0-87.898-39.435-87.898-87.898
	S207.529,0,256.003,0C304.466,0,343.891,39.435,343.891,87.898z"/>
<g>
	<path style="fill:#FFC477;" d="M343.891,87.898c0,48.463-39.425,87.898-87.888,87.898V0C304.466,0,343.891,39.435,343.891,87.898z"
		/>
	<path style="fill:#FFC477;" d="M498.93,490.873C490.341,504.101,475.803,512,460.025,512H51.971
		c-15.768,0-30.316-7.899-38.905-21.127c-8.559-13.178-9.879-29.606-3.55-43.974l117.394-278.842
		c5.849-13.158,18.937-21.657,33.335-21.657H351.75c14.398,0,27.486,8.499,33.335,21.657l0.12,0.28l117.274,278.562
		C508.818,461.267,507.488,477.695,498.93,490.873z"/>
</g>
<path style="fill:#FFB655;" d="M498.93,490.873C490.341,504.101,475.803,512,460.025,512H256.003V146.4h95.747
	c14.398,0,27.486,8.499,33.335,21.657l0.12,0.28l117.274,278.562C508.818,461.267,507.488,477.695,498.93,490.873z"/>
<path style="fill:#FFFCE5;" d="M256.343,395.406l-0.34-0.52l-46.114-70.23l38.145-47.733c1.13-1.42,1.7-3.2,1.7-5.329
	c0-3.41-1.77-6.639-5.319-9.689c-3.56-3.06-7.109-4.589-10.659-4.589c-3.13,0-5.689,1.35-7.669,4.049l-46.034,62.651v-58.172
	c0-2.84-1.35-4.969-4.049-6.399c-2.7-1.41-5.969-2.13-9.799-2.13c-3.839,0-7.109,0.72-9.809,2.13c-2.7,1.43-4.049,3.56-4.049,6.399
	v138.511c0,2.7,1.35,4.839,4.049,6.399c2.7,1.56,5.969,2.34,9.809,2.34c3.689,0,6.919-0.78,9.689-2.34
	c2.77-1.56,4.159-3.699,4.159-6.399V362.59l11.508-14.488l40.065,60.732c2.13,3.549,5.329,5.329,9.589,5.329
	c4.119,0,7.919-1.46,11.398-4.369c1.42-1.19,2.56-2.43,3.39-3.7c1.22-1.84,1.83-3.769,1.83-5.789
	C257.833,398.465,257.333,396.826,256.343,395.406z"/>
<g>
	<path style="fill:#FFE89C;" d="M265.294,365.574v-59.456c0-16.762,4.508-29.088,13.532-36.973
		c9.02-7.885,20.847-11.827,35.481-11.827c15.057,0,27.309,3.696,36.76,11.081c9.447,7.389,14.172,17.335,14.172,29.834
		c0,5.114-1.103,8.598-3.304,10.442c-2.205,1.848-5.721,2.771-10.549,2.771c-9.094,0-13.712-2.911-13.852-8.738
		c-0.427-6.249-2.205-11.327-5.328-15.237c-3.127-3.905-8.737-5.86-16.835-5.86c-14.917,0-22.376,8.171-22.376,24.507v59.456
		c0,16.339,7.386,24.507,22.163,24.507c7.102,0,12.605-2.058,16.516-6.18c3.905-4.118,5.86-10.229,5.86-18.327V353h-17.262
		c-2.701,0-4.795-1.066-6.287-3.197c-1.491-2.131-2.237-4.687-2.237-7.671c0-2.841,0.779-5.361,2.344-7.565
		c1.563-2.201,3.623-3.304,6.181-3.304H356.5c2.698,0,4.828,0.889,6.394,2.665c1.562,1.778,2.345,3.872,2.345,6.286v25.36
		c0,16.909-4.549,29.268-13.639,37.08c-9.094,7.815-21.24,11.72-36.44,11.72c-15.204,0-27.314-3.905-36.334-11.72
		C269.802,394.842,265.294,382.482,265.294,365.574z"/>
	<path style="fill:#FFE89C;" d="M257.833,400.305c0,2.02-0.61,3.949-1.83,5.789v-11.208l0.34,0.52
		C257.333,396.826,257.833,398.465,257.833,400.305z"/>
</g>
<g>
</g>
<g>
</g>
<g>
</g>
<g>
</g>
<g>
</g>
<g>
</g>
<g>
</g>
<g>
</g>
<g>
</g>
<g>
</g>
<g>
</g>
<g>
</g>
<g>
</g>
<g>
</g>
<g>
</g>
</svg>
